<?xml version="1.0" encoding="utf-8"?>
<!-- Generator: Adobe Illustrator 16.0.0, SVG Export Plug-In . SVG Version: 6.00 Build 0)  -->
<!DOCTYPE svg PUBLIC "-//W3C//DTD SVG 1.1//EN" "http://www.w3.org/Graphics/SVG/1.1/DTD/svg11.dtd">
<svg version="1.1" id="Layer_1" xmlns="http://www.w3.org/2000/svg" xmlns:xlink="http://www.w3.org/1999/xlink" x="0px" y="0px"
	 width="128px" height="128px" viewBox="0 0 128 128" enable-background="new 0 0 128 128" xml:space="preserve">
<g>
	<g>
		<g>
			<g>
				<path fill="#282D33" d="M108.948,128h-4V82.953l0.594-0.587c8.767-8.669,13.595-20.188,13.595-32.433
					C119.137,24.605,98.247,4,72.57,4C46.889,4,25.995,24.605,25.995,49.933c0,0.698,0.026,1.388,0.056,2.082l0.025,0.588
					L11.839,76.939h9.797v20.926c0,6.024,4.977,10.926,11.095,10.926h22.741V128h-4v-15.209H32.731
					c-8.323,0-15.095-6.695-15.095-14.926V80.939H4.863l17.167-29.342c-0.021-0.553-0.036-1.106-0.036-1.664
					C21.995,22.4,44.683,0,72.57,0c27.883,0,50.566,22.4,50.566,49.933c0,13.043-5.031,25.325-14.188,34.68V128z"/>
			</g>
		</g>
	</g>
	<g>
		<g>
			<g>
				<path fill="#282D33" d="M101.857,55.018c-1.178,5.814-4.079,11.193-8.396,15.457c-5.812,5.732-13.543,8.891-21.769,8.891
					c-6.04,0-11.896-1.74-16.872-4.961l19.642-19.386H101.857 M106.328,51.08h-33.48L48.814,74.802
					c6.331,5.496,14.374,8.5,22.88,8.5c9.268,0,17.981-3.562,24.532-10.024C102.301,67.279,105.84,59.471,106.328,51.08
					L106.328,51.08z"/>
			</g>
			<g>
				<path fill="#282D33" d="M77.893,19.365c11.746,2.313,20.967,11.099,23.711,22.571H77.893V19.365 M73.955,14.897v30.977h32.275
					C104.682,29.024,91.074,15.96,73.955,14.897L73.955,14.897z"/>
			</g>
			<g>
				<path fill="#282D33" d="M64.651,19.338v26.835L45.313,65.254c-3.069-4.823-4.724-10.44-4.724-16.19
					C40.591,34.805,50.861,22.482,64.651,19.338 M68.59,14.751c-17.81,1.507-31.936,16.444-31.938,34.312
					c0,8.179,2.898,15.97,8.202,22.176l23.736-23.42V14.751L68.59,14.751z"/>
			</g>
		</g>
	</g>
</g>
</svg>
